<svg width="500" height="500" viewBox="0 0 500 500" fill="none" xmlns="http://www.w3.org/2000/svg">
<g clip-path="url(#clip0)">
<path d="M471.608 8L359.105 28.112L426.17 114.915L490.699 104.121L471.608 8ZM303.458 41.3481L236.148 54.5419L303.458 141.1L370.522 127.906L303.458 41.3481ZM183.525 64.888L118.604 76.9048L185.913 163.463L250.589 151.936L183.525 64.888ZM63.3478 89.4087L39.3613 94.0676C26.6431 96.6133 15.4531 104.111 8.24835 114.915C1.04356 125.719 -1.58713 138.946 0.933906 151.691L10.4796 199.752L130.412 175.967L63.3478 89.4087ZM10.4796 199.752V444.959C10.4796 457.965 15.637 470.439 24.8173 479.636C33.9976 488.833 46.4487 494 59.4316 494H451.048C478.216 494 500 472.177 500 444.959V199.752H10.4796Z" fill="#E34D88"/>
<path d="M166 446.46C176.56 454.38 198.67 462.3 229.69 462.3C279.19 462.3 320.11 436.89 320.11 387.39C320.11 360.99 302.95 342.84 275.89 328.65C257.08 318.09 243.55 310.17 243.55 297.3C243.55 285.09 255.1 273.87 277.21 273.87C295.69 273.54 311.53 279.81 318.79 283.77L333.64 244.17C324.07 238.89 308.23 232.95 281.17 232.95C232.66 232.95 193.39 260.34 193.39 305.22C193.39 334.26 215.83 351.42 239.59 364.29C260.05 374.85 269.62 383.1 269.62 395.64C269.62 413.13 252.79 421.71 234.31 421.71C213.85 421.71 195.04 415.44 181.84 407.52L166 446.46Z" fill="#F5F5F5"/>
</g>
<defs>
<clipPath id="clip0">
<rect width="500" height="500" fill="white"/>
</clipPath>
</defs>
</svg>
