<svg width="500" height="500" viewBox="0 0 500 500" fill="none" xmlns="http://www.w3.org/2000/svg">
<path d="M434.176 45.4153L338.417 62.5029L395.5 136.253L450.426 127.082L434.176 45.4153ZM291.051 73.7486L233.759 84.9583L291.051 158.5L348.134 147.29L291.051 73.7486ZM188.967 93.7486L133.708 103.958L191 177.5L246.051 167.707L188.967 93.7486ZM86.6758 114.582L66.2591 118.54C55.4337 120.703 45.9092 127.074 39.7766 136.253C33.6441 145.432 31.4049 156.67 33.5508 167.499L41.6758 208.332L143.759 188.124L86.6758 114.582ZM41.6758 208.332V416.665C41.6758 427.716 46.0656 438.314 53.8797 446.128C61.6937 453.942 72.2918 458.332 83.3424 458.332H416.676C439.801 458.332 458.342 439.79 458.342 416.665V208.332H41.6758Z" fill="#E34D88"/>
<path d="M186 403.5C194 409.5 210.75 415.5 234.25 415.5C271.75 415.5 302.75 396.25 302.75 358.75C302.75 338.75 289.75 325 269.25 314.25C255 306.25 244.75 300.25 244.75 290.5C244.75 281.25 253.5 272.75 270.25 272.75C284.25 272.5 296.25 277.25 301.75 280.25L313 250.25C305.75 246.25 293.75 241.75 273.25 241.75C236.5 241.75 206.75 262.5 206.75 296.5C206.75 318.5 223.75 331.5 241.75 341.25C257.25 349.25 264.5 355.5 264.5 365C264.5 378.25 251.75 384.75 237.75 384.75C222.25 384.75 208 380 198 374L186 403.5Z" fill="#F5F5F5"/>
</svg>
